#define rnsdottedhalf_width 18
#define rnsdottedhalf_height 18
static unsigned char rnsdottedhalf_bits[] = {
   0xff, 0xff, 0x03, 0x01, 0x00, 0x02, 0x01, 0x08, 0x02, 0x01, 0x08, 0x02,
   0x01, 0x08, 0x02, 0x01, 0x08, 0x02, 0x01, 0x08, 0x02, 0x01, 0x08, 0x02,
   0x01, 0x08, 0x02, 0x01, 0x08, 0x02, 0x01, 0x08, 0x02, 0x01, 0x0f, 0x02,
   0xc1, 0x08, 0x02, 0x41, 0x68, 0x02, 0x81, 0x68, 0x02, 0x81, 0x07, 0x02,
   0x01, 0x00, 0x02, 0xff, 0xff, 0x03 };
