#define rnseighth_width 18
#define rnseighth_height 18
static unsigned char rnseighth_bits[] = {
   0xff, 0xff, 0x03, 0x01, 0x00, 0x02, 0x01, 0x18, 0x02, 0x01, 0x38, 0x02,
   0x01, 0x68, 0x02, 0x01, 0xc8, 0x02, 0x01, 0x08, 0x02, 0x01, 0x08, 0x02,
   0x01, 0x08, 0x02, 0x01, 0x08, 0x02, 0x01, 0x08, 0x02, 0x01, 0x0f, 0x02,
   0xc1, 0x0f, 0x02, 0xc1, 0x0f, 0x02, 0xc1, 0x0f, 0x02, 0xc1, 0x07, 0x02,
   0x01, 0x00, 0x02, 0xff, 0xff, 0x03 };
