#define rnshalf_width 18
#define rnshalf_height 18
static unsigned char rnshalf_bits[] = {
   0xff, 0xff, 0x03, 0x01, 0x00, 0x02, 0x01, 0x10, 0x02, 0x01, 0x10, 0x02,
   0x01, 0x10, 0x02, 0x01, 0x10, 0x02, 0x01, 0x10, 0x02, 0x01, 0x10, 0x02,
   0x01, 0x10, 0x02, 0x01, 0x10, 0x02, 0x01, 0x10, 0x02, 0x01, 0x17, 0x02,
   0xc1, 0x1c, 0x02, 0x41, 0x18, 0x02, 0x61, 0x08, 0x02, 0xc1, 0x07, 0x02,
   0x01, 0x00, 0x02, 0xff, 0xff, 0x03 };
