#define rnsnbdottedquarter_width 12
#define rnsnbdottedquarter_height 12
static unsigned char rnsnbdottedquarter_bits[] = {
   0x00, 0x00, 0x80, 0x00, 0x80, 0x00, 0x80, 0x00, 0x80, 0x00, 0x80, 0x00,
   0x80, 0x00, 0xe0, 0x00, 0xf0, 0x00, 0xf0, 0x02, 0x70, 0x00, 0x00, 0x00 };
