#define rnsnbhalf_width 12
#define rnsnbhalf_height 12
static unsigned char rnsnbhalf_bits[] = {
   0x00, 0x00, 0x00, 0x01, 0x00, 0x01, 0x00, 0x01, 0x00, 0x01, 0x00, 0x01,
   0x00, 0x01, 0x60, 0x01, 0x90, 0x01, 0x98, 0x00, 0x70, 0x00, 0x00, 0x00 };
