#define rnsnbwhole_width 12
#define rnsnbwhole_height 12
static unsigned char rnsnbwhole_bits[] = {
   0x00, 0x00, 0x00, 0x00, 0x00, 0x00, 0x00, 0x00, 0x00, 0x00, 0x00, 0x00,
   0x00, 0x00, 0x60, 0x00, 0x90, 0x00, 0x90, 0x00, 0x60, 0x00, 0x00, 0x00 };
