#define rnsnbeighth_width 12
#define rnsnbeighth_height 12
static unsigned char rnsnbeighth_bits[] = {
   0x00, 0x00, 0x80, 0x01, 0x80, 0x01, 0x80, 0x06, 0x80, 0x00, 0x80, 0x00,
   0x80, 0x00, 0xe0, 0x00, 0xf0, 0x00, 0xf0, 0x00, 0x70, 0x00, 0x00, 0x00 };
