#define rnsnbsixteenth_width 12
#define rnsnbsixteenth_height 12
static unsigned char rnsnbsixteenth_bits[] = {
   0x00, 0x00, 0x80, 0x01, 0x80, 0x01, 0x80, 0x07, 0x80, 0x00, 0x80, 0x07,
   0x80, 0x00, 0xe0, 0x00, 0xf0, 0x00, 0xf0, 0x00, 0x70, 0x00, 0x00, 0x00 };
