#define rnsnbdottedhalf_width 12
#define rnsnbdottedhalf_height 12
static unsigned char rnsnbdottedhalf_bits[] = {
   0x00, 0x00, 0x80, 0x00, 0x80, 0x00, 0x80, 0x00, 0x80, 0x00, 0x80, 0x00,
   0x80, 0x00, 0xe0, 0x00, 0x90, 0x00, 0x90, 0x02, 0x60, 0x00, 0x00, 0x00 };
