#define rnswhole_width 18
#define rnswhole_height 18
static unsigned char rnswhole_bits[] = {
   0xff, 0xff, 0x03, 0x01, 0x00, 0x02, 0x01, 0x00, 0x02, 0x01, 0x00, 0x02,
   0x01, 0x00, 0x02, 0x01, 0x00, 0x02, 0x01, 0x00, 0x02, 0x01, 0x00, 0x02,
   0x01, 0x00, 0x02, 0x01, 0x00, 0x02, 0x01, 0x00, 0x02, 0x01, 0x07, 0x02,
   0x81, 0x08, 0x02, 0x41, 0x10, 0x02, 0x41, 0x08, 0x02, 0x81, 0x07, 0x02,
   0x01, 0x00, 0x02, 0xff, 0xff, 0x03 };
